<?xml version="1.0" standalone="no"?>
<!DOCTYPE svg PUBLIC "-//W3C//DTD SVG 20010904//EN"
 "http://www.w3.org/TR/2001/REC-SVG-20010904/DTD/svg10.dtd">
<svg version="1.0" xmlns="http://www.w3.org/2000/svg"
 width="244.000000pt" height="244.000000pt" viewBox="0 0 244.000000 244.000000"
 preserveAspectRatio="xMidYMid meet">
<metadata>
Created by potrace 1.14, written by Peter Selinger 2001-2017
</metadata>
<g transform="translate(0.000000,244.000000) scale(0.100000,-0.100000)"
fill="#000000" stroke="none">
<path d="M994 2419 c-148 -26 -184 -35 -184 -48 0 -4 -9 -7 -20 -8 -22 -2
-131 -49 -140 -61 -3 -4 -22 -15 -42 -26 -20 -10 -45 -26 -55 -35 -10 -10 -26
-22 -35 -27 -29 -16 -124 -109 -171 -167 -52 -64 -127 -174 -127 -186 0 -5
-12 -29 -26 -55 -14 -25 -27 -52 -28 -59 -2 -6 -8 -25 -14 -40 -7 -16 -12 -33
-12 -38 0 -5 -4 -9 -8 -9 -5 0 -8 -10 -7 -22 1 -13 -4 -42 -11 -65 -7 -24 -16
-62 -19 -85 -4 -24 -9 -59 -12 -78 -3 -19 -5 -41 -4 -47 1 -16 1 -36 -2 -93
-1 -25 3 -48 8 -52 6 -5 6 -8 -1 -8 -6 0 -10 -10 -8 -22 1 -13 5 -43 9 -68 3
-25 9 -56 12 -70 4 -14 7 -33 8 -42 2 -10 4 -21 5 -25 1 -5 3 -12 4 -18 1 -5
5 -17 8 -25 3 -8 11 -33 17 -55 35 -114 170 -368 203 -383 5 -2 8 -10 8 -18 0
-9 5 -12 11 -8 9 5 10 -2 6 -22 -3 -16 -4 -23 -1 -16 8 18 17 15 33 -11 13
-21 13 -21 -4 -7 -16 13 -18 13 -13 0 3 -8 14 -15 26 -14 12 0 19 -3 16 -8 -3
-4 -15 -8 -27 -9 -22 0 -22 0 2 -10 16 -6 21 -14 17 -25 -5 -12 -2 -15 10 -10
12 5 14 1 10 -17 -3 -12 -3 -16 0 -10 4 10 9 9 21 -2 8 -8 20 -12 26 -8 7 4 7
1 -1 -9 -11 -14 -10 -16 6 -11 13 3 25 -3 36 -19 9 -12 19 -22 21 -20 13 6 25
1 19 -10 -5 -8 -2 -9 9 -5 10 3 17 2 17 -4 0 -6 5 -7 10 -4 5 3 10 2 10 -3 0
-5 13 -15 30 -22 16 -7 30 -16 30 -21 0 -5 5 -9 11 -9 16 0 100 -41 122 -59 9
-8 17 -11 17 -6 0 4 6 3 13 -3 13 -11 158 -61 197 -68 14 -3 32 -7 40 -9 101
-30 368 -23 482 11 9 3 25 6 35 8 49 10 243 99 277 127 6 5 40 31 76 58 86 65
206 195 234 252 5 11 12 19 16 19 4 0 19 26 34 57 15 32 31 65 36 73 26 45 55
123 65 176 2 10 4 19 5 19 1 0 3 7 5 15 20 78 25 105 21 117 -3 7 -2 13 3 13
10 0 10 2 14 155 2 72 0 146 -4 165 -4 19 -10 53 -14 75 -23 152 -42 215 -105
350 -56 122 -149 253 -253 359 -51 53 -99 96 -105 96 -5 0 -12 4 -14 8 -6 17
-115 89 -193 129 -75 38 -175 78 -227 89 -39 9 -53 12 -53 14 0 1 -9 3 -20 5
-11 1 -38 6 -60 10 -83 14 -234 11 -331 -6z"/>
</g>
</svg>
